<?xml version="1.0" encoding="utf-8"?>
<!-- Generator: Adobe Illustrator 24.0.3, SVG Export Plug-In . SVG Version: 6.00 Build 0)  -->
<svg version="1.1" id="Capa_1" xmlns="http://www.w3.org/2000/svg" xmlns:xlink="http://www.w3.org/1999/xlink" x="0px" y="0px"
	 viewBox="0 0 765.3 382.7" style="enable-background:new 0 0 765.3 382.7;" xml:space="preserve">
<style type="text/css">
	.st0{fill:#5982F6;}
	.st1{fill:#3D3D3D;}
	.st2{fill:#F9FFEB;}
	.st3{fill:#AFB0B0;}
	.st4{fill:#FFFFFF;}
	.st5{font-family:'Helvetica-Bold';}
	.st6{font-size:60px;}
</style>
<g id="Layer_1">
</g>
<g id="Layer_2">
	<path class="st0" d="M203.3,264c0,0-155.1,0-160.2,0s-5.9-2.5-5.9-5.9s0-135.6,0-140.7c0-5.1,2.5-8.1,8.1-8.1s201.3,0,201.3,0
		L203.3,264z"/>
	<path class="st1" d="M262.8,110c0,0,461.9,0,466.9,0s5.9,2.5,5.9,5.9s0,135.6,0,140.7s-2.5,8.1-8.1,8.1s-508,0-508,0L262.8,110z"/>
	<g>
		<path class="st2" d="M92,207.3l-0.8-3.1c-1.4,1.3-3.1,2.3-4.9,3.1c-1.9,0.8-3.7,1.1-5.4,1.1c-3.4,0-6.1-1-8.2-2.9
			c-2.1-1.9-3.1-4.5-3.1-7.7c0-2.2,0.6-4.2,1.7-5.8s2.7-3,4.8-4c2.1-1,4.5-1.5,7.3-1.5c2.2,0,4.7,0.3,7.3,0.9V184
			c0-2.1-0.4-3.6-1.3-4.4c-0.9-0.8-2.5-1.2-4.8-1.2c-3.8,0-7.9,0.7-12.5,2.1v-6.7c1.7-0.9,3.8-1.6,6.4-2.1c2.6-0.5,5.2-0.8,7.9-0.8
			c4.7,0,8.2,1,10.4,2.9c2.2,1.9,3.3,4.9,3.3,9v24.5L92,207.3L92,207.3z M83.6,201.7c1.2,0,2.3-0.3,3.6-0.8c1.2-0.5,2.4-1.2,3.4-2.1
			v-6c-2-0.3-3.8-0.5-5.5-0.5c-4,0-6,1.6-6,4.8c0,1.4,0.4,2.5,1.2,3.3C81.1,201.3,82.2,201.7,83.6,201.7z"/>
		<path class="st2" d="M136.9,207.3l-6.1-24.8l-6.2,24.8H115L103.7,172h10.6l5.9,25.5l6.4-25.5h9.1l6.5,25.6l5.5-25.6H158
			l-11.3,35.3H136.9z"/>
		<path class="st2" d="M178.3,197.6c0-0.9-0.3-1.6-0.8-2.1c-0.5-0.5-1.6-1.1-3.2-1.7l-5.4-2.1c-2.8-1.1-4.8-2.5-6.1-4.1
			c-1.2-1.6-1.9-3.7-1.9-6.2c0-3.1,1.3-5.7,3.8-7.6c2.5-1.9,5.9-2.9,10.1-2.9c3.9,0,7.4,0.8,10.7,2.3v6.7c-3.5-1.1-6.8-1.6-9.8-1.6
			c-1.9,0-3.3,0.2-4.1,0.7c-0.9,0.5-1.3,1.2-1.3,2.2c0,0.8,0.3,1.4,0.8,1.9c0.5,0.5,1.6,1.1,3.4,1.8l5.3,2.1c2.9,1.2,4.9,2.5,6.1,4
			c1.2,1.5,1.8,3.5,1.8,5.9c0,3.4-1.3,6.2-3.9,8.3c-2.6,2.1-6,3.1-10.3,3.1c-4.7,0-8.9-0.9-12.6-2.8v-6.7c4.6,1.4,8.7,2.1,12.5,2.1
			C176.6,201.1,178.3,199.9,178.3,197.6z"/>
	</g>
	<g>
		<g>
			<path class="st3" d="M456.8,142.8h6.3v18.5c0,3.6-1,6.4-3.1,8.4c-2.1,2-5.1,3-8.9,3c-3.9,0-6.8-1-8.9-3c-2.1-2-3.1-4.8-3.1-8.5
				v-18.5h6.3v18.8c0,2,0.5,3.5,1.5,4.5c1,1,2.4,1.5,4.3,1.5s3.3-0.5,4.3-1.5c1-1,1.5-2.5,1.5-4.5L456.8,142.8L456.8,142.8z"/>
			<path class="st3" d="M477.9,159.3c-2.5-0.9-4.3-2.1-5.4-3.4c-1.1-1.3-1.6-3-1.6-5.1c0-2.6,1-4.8,2.9-6.3c2-1.6,4.6-2.4,7.9-2.4
				c2.8,0,5.5,0.5,8.1,1.5v4.8c-2.7-0.8-5.3-1.3-7.6-1.3c-3.3,0-5,1.1-5,3.2c0,0.8,0.3,1.4,0.9,1.9c0.6,0.5,1.7,1,3.2,1.6l3.1,1.1
				c2.6,1,4.5,2.1,5.6,3.4c1.1,1.3,1.7,2.9,1.7,5c0,2.9-1,5.2-3.1,6.9c-2.1,1.7-4.9,2.5-8.6,2.5c-1.6,0-3.1-0.1-4.7-0.4
				c-1.6-0.3-2.9-0.7-4-1.2v-4.8c1.4,0.4,2.9,0.8,4.5,1c1.6,0.3,3,0.4,4.3,0.4c1.7,0,2.9-0.3,3.8-0.9c0.9-0.6,1.3-1.5,1.3-2.6
				c0-0.9-0.3-1.6-0.8-2.1c-0.5-0.5-1.7-1.1-3.3-1.7L477.9,159.3z"/>
			<path class="st3" d="M498.2,172.1v-29.2h19.2v4.9h-12.9v6.9H515v4.9h-10.5v7.6h12.9v4.9L498.2,172.1L498.2,172.1z"/>
			<path class="st3" d="M526.4,172.1v-29.2h11.3c3,0,5.4,0.8,7.2,2.4s2.7,3.8,2.7,6.5c0,1.7-0.5,3.2-1.4,4.6
				c-0.9,1.3-2.2,2.4-3.9,3.2l7.3,12.6h-6.5l-6.3-11.3h-4.1v11.3H526.4z M532.5,156.3h4.4c3,0,4.4-1.5,4.4-4.5
				c0-2.9-1.4-4.4-4.3-4.4h-4.5V156.3z"/>
			<path class="st3" d="M583,167.5c0.9,0,1.9-0.1,3.1-0.2v-7.1h-5.5v-4.6h11.3v14.6c-1.3,0.7-2.9,1.3-4.7,1.6
				c-1.8,0.4-3.7,0.6-5.6,0.6c-4.6,0-8.1-1.3-10.5-3.8c-2.5-2.6-3.7-6.2-3.7-10.9c0-5,1.3-8.8,3.8-11.4c2.5-2.6,6.2-3.9,11.1-3.9
				c3.3,0,6.2,0.6,8.6,1.7v4.8c-2.9-0.9-5.6-1.4-7.9-1.4c-3.1,0-5.4,0.8-6.9,2.3c-1.5,1.6-2.2,4-2.2,7.4v0.8c0,3.3,0.7,5.7,2.2,7.3
				C577.5,166.8,579.8,167.5,583,167.5z"/>
			<path class="st3" d="M600.7,172.1v-29.2h11.3c3,0,5.4,0.8,7.2,2.4s2.7,3.8,2.7,6.5c0,1.7-0.5,3.2-1.4,4.6
				c-0.9,1.3-2.2,2.4-3.9,3.2l7.3,12.6h-6.5l-6.3-11.3h-4.1v11.3H600.7z M606.8,156.3h4.4c3,0,4.4-1.5,4.4-4.5
				c0-2.9-1.4-4.4-4.3-4.4h-4.5V156.3z"/>
			<path class="st3" d="M625.9,157.4c0-3.1,0.6-5.8,1.7-8.1c1.1-2.3,2.7-4.1,4.9-5.3c2.2-1.3,4.7-1.9,7.7-1.9c2.9,0,5.4,0.6,7.5,1.8
				c2.1,1.2,3.8,3,5,5.2c1.2,2.3,1.8,5,1.8,8.2c0,3.1-0.6,5.8-1.7,8.1c-1.1,2.3-2.7,4.1-4.9,5.4c-2.2,1.3-4.7,1.9-7.7,1.9
				c-2.9,0-5.4-0.6-7.5-1.8c-2.1-1.2-3.8-3-5-5.3C626.4,163.4,625.9,160.6,625.9,157.4z M632.4,157.4c0,3.3,0.7,5.8,2,7.6
				c1.3,1.7,3.2,2.6,5.8,2.6c2.5,0,4.5-0.9,5.8-2.6c1.3-1.7,2-4.3,2-7.6c0-3.3-0.7-5.8-2-7.6c-1.3-1.7-3.2-2.6-5.8-2.6
				c-2.5,0-4.5,0.9-5.8,2.6C633,151.6,632.4,154.1,632.4,157.4z"/>
			<path class="st3" d="M677.9,142.8h6.3v18.5c0,3.6-1,6.4-3.1,8.4c-2.1,2-5.1,3-8.9,3c-3.9,0-6.8-1-8.9-3c-2.1-2-3.1-4.8-3.1-8.5
				v-18.5h6.3v18.8c0,2,0.5,3.5,1.5,4.5c1,1,2.4,1.5,4.3,1.5s3.3-0.5,4.3-1.5c1-1,1.5-2.5,1.5-4.5L677.9,142.8L677.9,142.8z"/>
			<path class="st3" d="M697,161.4v10.7h-6.2v-29.2H702c3,0,5.4,0.8,7.2,2.5c1.8,1.7,2.7,3.9,2.7,6.8s-0.9,5.1-2.7,6.8
				s-4.2,2.5-7.2,2.5L697,161.4L697,161.4z M697,156.7h4.3c1.4,0,2.5-0.4,3.2-1.2s1.1-1.9,1.1-3.4c0-1.5-0.4-2.6-1.1-3.4
				c-0.7-0.8-1.8-1.2-3.2-1.2H697V156.7z"/>
		</g>
	</g>
	<text transform="matrix(1 0 0 1 532.4557 239.0101)" class="st4 st5 st6">BAJÍO</text>
</g>
</svg>
